<svg width="120" height="120" viewBox="0 0 120 120" fill="none" xmlns="http://www.w3.org/2000/svg">
<rect x="2" y="2" width="116" height="116" rx="58" fill="#2C2C2C"/>
<path d="M66.6663 53.3334L53.333 66.6667" stroke="white" stroke-width="1.5" stroke-linecap="round" stroke-linejoin="round"/>
<path d="M54.667 53.3334H66.667V65.3334" stroke="white" stroke-width="1.5" stroke-linecap="round" stroke-linejoin="round"/>
<path d="M93.5751 72.6826C93.7774 72.1433 94.0734 71.6734 94.463 71.2727C94.8526 70.872 95.2983 70.5608 95.8002 70.339C96.3096 70.12 96.8471 69.9969 97.4127 69.9699C97.9829 69.9532 98.5489 70.0502 99.1106 70.261C99.6724 70.4717 100.159 70.7696 100.57 71.1545C100.978 71.5469 101.298 71.9917 101.53 72.489C101.767 72.9965 101.895 73.5316 101.915 74.0944C101.939 74.6674 101.844 75.2386 101.631 75.8078C101.397 76.4295 101.061 76.9613 100.622 77.4031C100.183 77.845 99.6746 78.1628 99.0978 78.3565L98.5503 77.1513C98.967 77.0428 99.3345 76.8261 99.653 76.5012C99.9789 76.1792 100.226 75.7935 100.395 75.3441C100.597 74.8048 100.656 74.2842 100.571 73.7823C100.49 73.2907 100.282 72.8539 99.9473 72.4718C99.6122 72.0897 99.1675 71.7947 98.6132 71.5867C98.0589 71.3787 97.5262 71.307 97.0149 71.3715C96.5083 71.4463 96.0622 71.6335 95.6763 71.933C95.2905 72.2326 95.0048 72.6295 94.8193 73.1239C94.6226 73.6482 94.5476 74.1327 94.5943 74.5775C94.6458 75.0326 94.8208 75.4315 95.1194 75.7742C95.4255 76.1198 95.8557 76.3966 96.41 76.6045L95.5222 77.1942L96.7827 73.8349L97.9624 74.2776L96.5038 78.1649L96.324 78.0975C95.3877 77.7462 94.672 77.2854 94.1768 76.7151C93.6788 76.1522 93.3844 75.5248 93.2937 74.8329C93.203 74.1409 93.2968 73.4242 93.5751 72.6826Z" fill="white"/>
<path d="M91.0872 78.4271L97.916 83.3187L97.1124 84.4405L90.2835 79.549L91.0872 78.4271ZM90.5351 79.1978L91.5594 79.9315L88.8202 83.7557L87.7959 83.022L90.5351 79.1978ZM93.53 81.3431L94.5153 82.0489L92.0137 85.5413L91.0284 84.8356L93.53 81.3431ZM96.3396 83.3556L97.3639 84.0894L94.6596 87.8647L93.6353 87.131L96.3396 83.3556Z" fill="white"/>
<path d="M84.735 86.1794L90.1599 92.2749L89.1291 93.1924L83.7041 87.0968L84.735 86.1794ZM91.5256 89.694L92.3633 90.6353L87.2448 95.1906L86.4071 94.2494L91.5256 89.694Z" fill="white"/>
<path d="M75.8744 92.3397L79.3475 99.9881L78.091 100.559L74.6179 92.9103L75.8744 92.3397Z" fill="white"/>
<path d="M71.2886 94.3636L73.1449 102.556L72.2086 102.768L71.4489 101.316L69.9427 94.6685L71.2886 94.3636ZM65.6125 95.6497L71.9667 100.94L72.2086 102.768L65.8544 97.4774L65.6125 95.6497ZM65.6125 95.6497L66.3483 96.9964L67.8784 103.749L66.5325 104.054L64.6762 95.8618L65.6125 95.6497Z" fill="white"/>
<path d="M55.5974 95.7535L54.3456 103.817L52.9819 103.605L54.2338 95.5418L55.5974 95.7535ZM57.2057 103.229L57.0124 104.474L50.2415 103.423L50.4348 102.178L57.2057 103.229Z" fill="white"/>
<path d="M45.4247 92.7969C45.9737 93.0389 46.441 93.3672 46.8265 93.7818C47.212 94.1965 47.5051 94.6622 47.7058 95.179C47.9032 95.7031 47.9995 96.2483 47.9948 96.8145C47.9796 97.3847 47.8509 97.9444 47.609 98.4934C47.367 99.0425 47.0424 99.5114 46.635 99.9001C46.2204 100.286 45.7583 100.58 45.2488 100.784C44.7288 100.992 44.191 101.092 43.6354 101.083C43.0692 101.078 42.5116 100.955 41.9625 100.713C41.4135 100.471 40.9498 100.144 40.5716 99.7328C40.1829 99.3255 39.8898 98.8598 39.6924 98.3356C39.4918 97.8189 39.3991 97.2753 39.4143 96.7051C39.4191 96.1389 39.5424 95.5813 39.7843 95.0322C40.0263 94.4832 40.3562 94.0122 40.7741 93.6194C41.1815 93.2306 41.6435 92.9359 42.1603 92.7353C42.6698 92.5314 43.2076 92.4319 43.7738 92.4366C44.3326 92.4381 44.8829 92.5582 45.4247 92.7969ZM44.9143 94.0145C44.3946 93.7854 43.8891 93.7026 43.3978 93.7658C42.8993 93.8259 42.4499 94.0125 42.0496 94.3257C41.6388 94.643 41.314 95.0725 41.0753 95.6142C40.8978 96.0168 40.8024 96.4119 40.789 96.7994C40.7651 97.191 40.817 97.5592 40.9448 97.904C41.0694 98.2562 41.2637 98.5691 41.5277 98.8428C41.7845 99.1133 42.1068 99.334 42.4948 99.505C43.0073 99.7308 43.5128 99.8137 44.0113 99.7537C44.4993 99.6977 44.9471 99.5148 45.3547 99.2048C45.755 98.8916 46.0745 98.4642 46.3132 97.9224C46.4907 97.5198 46.593 97.119 46.6201 96.7201C46.6368 96.3253 46.5848 95.9571 46.4643 95.6155C46.3365 95.2707 46.1422 94.9577 45.8814 94.6767C45.6174 94.403 45.295 94.1822 44.9143 94.0145Z" fill="white"/>
<path d="M36.7354 87.3162C37.2166 87.726 37.5557 88.2039 37.7527 88.7499C37.9496 89.296 38 89.8537 37.9038 90.4233C37.7963 90.9937 37.5376 91.5195 37.1279 92.0007L33.7512 95.9657L32.7006 95.071L36.0695 91.1151C36.334 90.8045 36.5008 90.479 36.57 90.1386C36.628 89.7991 36.5987 89.4695 36.4823 89.1497C36.3607 88.8359 36.1598 88.5598 35.8796 88.3212C35.5933 88.0774 35.2887 87.923 34.9657 87.8581C34.6375 87.7993 34.3135 87.8281 33.9937 87.9445C33.6687 88.0671 33.3765 88.2806 33.1172 88.5851L29.7405 92.5501L28.6899 91.6554L32.0743 87.6812C32.4841 87.2001 32.9594 86.8641 33.5002 86.6732C34.0411 86.4823 34.5937 86.438 35.158 86.5403C35.7224 86.6426 36.2482 86.9013 36.7354 87.3162Z" fill="white"/>
<path d="M29.8199 79.4499C30.1667 79.9493 30.3997 80.4742 30.5189 81.0245C30.6269 81.5728 30.6295 82.1165 30.5265 82.6555C30.417 83.199 30.208 83.7045 29.8995 84.172C29.5844 84.644 29.1805 85.0511 28.6877 85.3933C28.1948 85.7355 27.6755 85.9695 27.1298 86.0953C26.5775 86.2256 26.0308 86.2448 25.4898 86.153C24.9488 86.0612 24.4403 85.8689 23.9642 85.5761C23.4836 85.2767 23.07 84.8773 22.7232 84.3779C22.3353 83.8194 22.0919 83.2725 21.993 82.7374C21.8941 82.2022 21.8928 81.6674 21.9892 81.133L23.2919 81.3679C23.21 81.7267 23.2092 82.0974 23.2897 82.4798C23.3656 82.8556 23.5382 83.2373 23.8074 83.625C24.0447 83.9667 24.3206 84.2378 24.635 84.4382C24.9495 84.6386 25.2915 84.7664 25.6609 84.8216C26.0192 84.8747 26.3883 84.8521 26.7681 84.754C27.148 84.6558 27.5186 84.4812 27.88 84.2302C28.2414 83.9793 28.5345 83.693 28.7592 83.3714C28.9839 83.0498 29.1372 82.7095 29.2192 82.3507C29.29 81.9898 29.2865 81.6271 29.2085 81.2624C29.1306 80.8977 28.973 80.5445 28.7357 80.2028C28.4437 79.7822 28.1349 79.4708 27.8092 79.2683C27.4725 79.0639 27.1217 78.9374 26.7568 78.8888L26.9917 77.5861C27.5327 77.678 28.0435 77.8736 28.5241 78.1729C29.0047 78.4723 29.4366 78.8979 29.8199 79.4499Z" fill="white"/>
<path d="M27.2154 75.2614L19.3073 78.0939L18.842 76.7947L26.75 73.9622L27.2154 75.2614ZM25.4147 70.2342L17.5067 73.0667L17.0413 71.7675L24.9494 68.935L25.4147 70.2342ZM23.3936 75.6233L22.2074 76.0482L20.6252 71.631L21.8114 71.2061L23.3936 75.6233Z" fill="white"/>
<path d="M20.856 59.4988C20.856 59.7468 20.8 59.9668 20.688 60.1588C20.576 60.3508 20.424 60.5028 20.232 60.6148C20.032 60.7188 19.816 60.7708 19.584 60.7708C19.352 60.7708 19.14 60.7188 18.948 60.6148C18.756 60.5028 18.604 60.3508 18.492 60.1588C18.372 59.9668 18.312 59.7468 18.312 59.4988C18.312 59.2508 18.372 59.0348 18.492 58.8508C18.604 58.6588 18.756 58.5108 18.948 58.4068C19.14 58.2948 19.352 58.2388 19.584 58.2388C19.816 58.2388 20.032 58.2948 20.232 58.4068C20.424 58.5108 20.576 58.6588 20.688 58.8508C20.8 59.0348 20.856 59.2508 20.856 59.4988Z" fill="white"/>
<path d="M26.2643 47.7485C26.068 48.2901 25.7774 48.7634 25.3923 49.1684C25.0073 49.5734 24.5651 49.8897 24.0657 50.1171C23.5588 50.3418 23.0227 50.4709 22.4575 50.5043C21.8875 50.5275 21.3204 50.4369 20.7564 50.2324C20.1923 50.028 19.7026 49.7356 19.2873 49.3554C18.8747 48.9676 18.5496 48.5264 18.3119 48.0318C18.0694 47.527 17.9352 46.9933 17.9093 46.4308C17.8786 45.8581 17.9669 45.2859 18.174 44.7143C18.4003 44.09 18.7305 43.5545 19.1648 43.1077C19.599 42.661 20.1034 42.3375 20.678 42.1373L21.239 43.3362C20.8236 43.4494 20.4585 43.6702 20.1438 43.9986C19.8215 44.3243 19.5786 44.7128 19.4151 45.1641C19.2188 45.7056 19.166 46.2268 19.2568 46.7277C19.3428 47.2184 19.5554 47.6528 19.8949 48.0311C20.2343 48.4094 20.6823 48.6994 21.2388 48.9011C21.7954 49.1029 22.3289 49.1686 22.8394 49.0983C23.3451 49.0178 23.7892 48.8256 24.1716 48.5217C24.554 48.2179 24.8352 47.8177 25.0151 47.3213C25.2059 46.7948 25.2755 46.3095 25.2237 45.8653C25.1672 45.4108 24.9877 45.0139 24.6852 44.6745C24.3753 44.3324 23.942 44.0605 23.3854 43.8588L24.2665 43.2591L23.0439 46.6324L21.8593 46.2031L23.274 42.2996L23.4545 42.365C24.3947 42.7057 25.1156 43.1584 25.6172 43.7232C26.1215 44.2803 26.4229 44.9044 26.5214 45.5953C26.6199 46.2862 26.5342 47.0039 26.2643 47.7485Z" fill="white"/>
<path d="M28.6431 42.0129L21.761 37.1965L22.5523 36.0659L29.4344 40.8822L28.6431 42.0129ZM29.1867 41.2362L28.1543 40.5137L30.8515 36.6598L31.8838 37.3822L29.1867 41.2362ZM26.1684 39.1239L25.1754 38.4289L27.6386 34.9093L28.6316 35.6042L26.1684 39.1239ZM23.3369 37.1423L22.3046 36.4198L24.9673 32.615L25.9997 33.3375L23.3369 37.1423Z" fill="white"/>
<path d="M34.9599 34.105L29.4908 28.049L30.515 27.1241L35.9841 33.18L34.9599 34.105ZM28.144 30.6398L27.2995 29.7047L32.3847 25.1122L33.2292 26.0473L28.144 30.6398Z" fill="white"/>
<path d="M43.7983 27.8194L40.2684 20.1971L41.5207 19.6172L45.0506 27.2395L43.7983 27.8194Z" fill="white"/>
<path d="M48.2213 25.7904L46.2716 17.6198L47.2054 17.397L47.9816 18.8402L49.5636 25.4701L48.2213 25.7904ZM53.8824 24.4395L47.4681 19.2218L47.2054 17.397L53.6196 22.6147L53.8824 24.4395ZM53.8824 24.4395L53.1312 23.1013L51.5241 16.3664L52.8664 16.0461L54.8161 24.2167L53.8824 24.4395Z" fill="white"/>
<path d="M63.8862 24.1836L65.0452 16.1063L66.4112 16.3023L65.2522 24.3796L63.8862 24.1836ZM62.1921 16.7273L62.371 15.4801L69.1536 16.4533L68.9746 17.7005L62.1921 16.7273Z" fill="white"/>
<path d="M74.1673 27.0241C73.6164 26.7863 73.1467 26.4615 72.7581 26.0497C72.3695 25.6379 72.073 25.1744 71.8685 24.6591C71.6672 24.1365 71.5668 23.592 71.5672 23.0258C71.5783 22.4555 71.7027 21.8949 71.9405 21.344C72.1784 20.7932 72.4995 20.3219 72.904 19.9301C73.3157 19.5415 73.7756 19.2434 74.2835 19.0357C74.802 18.8239 75.3391 18.7203 75.8947 18.725C76.4609 18.7255 77.0194 18.8446 77.5703 19.0825C78.1211 19.3203 78.5872 19.6436 78.9684 20.0522C79.3602 20.4566 79.6568 20.9201 79.8581 21.4428C80.0626 21.958 80.1593 22.5009 80.1483 23.0712C80.1478 23.6374 80.0286 24.196 79.7908 24.7468C79.5529 25.2976 79.2265 25.771 78.8116 26.167C78.4071 26.5587 77.9473 26.8569 77.432 27.0614C76.9241 27.269 76.387 27.3726 75.8208 27.3721C75.262 27.3748 74.7108 27.2588 74.1673 27.0241ZM74.6685 25.8028C75.19 26.0279 75.6961 26.107 76.1868 26.0401C76.6849 25.9763 77.1329 25.7863 77.5309 25.4702C77.9393 25.1499 78.2609 24.7179 78.4956 24.1745C78.67 23.7705 78.7624 23.3747 78.7729 22.9871C78.794 22.5954 78.7393 22.2276 78.6089 21.8837C78.4817 21.5325 78.2851 21.221 78.019 20.9493C77.7603 20.6807 77.4363 20.4624 77.047 20.2943C76.5329 20.0723 76.0268 19.9932 75.5287 20.057C75.0411 20.1166 74.5947 20.3029 74.1894 20.6159C73.7915 20.932 73.4752 21.3619 73.2405 21.9054C73.0661 22.3093 72.9668 22.7108 72.9426 23.1099C72.9289 23.5049 72.9836 23.8727 73.1066 24.2134C73.237 24.5572 73.4336 24.8687 73.6965 25.1478C73.9626 25.4195 74.2866 25.6378 74.6685 25.8028Z" fill="white"/>
<path d="M82.9029 32.3791C82.4173 31.9747 82.073 31.5005 81.8701 30.9566C81.6672 30.4128 81.6107 29.8556 81.7007 29.285C81.802 28.7134 82.0549 28.1848 82.4593 27.6992L85.7925 23.6976L86.8529 24.5808L83.5274 28.5732C83.2662 28.8867 83.1029 29.214 83.0375 29.5551C82.9833 29.8952 83.0161 30.2245 83.136 30.543C83.2611 30.8554 83.465 31.1294 83.7477 31.3649C84.0366 31.6055 84.3429 31.7566 84.6666 31.8179C84.9954 31.8732 85.3191 31.8408 85.6376 31.7209C85.9613 31.5949 86.2511 31.3782 86.5071 31.0708L89.8403 27.0692L90.9006 27.9524L87.5598 31.9633C87.1553 32.4489 86.6837 32.7901 86.1449 32.9868C85.6062 33.1836 85.0541 33.2339 84.4887 33.1378C83.9232 33.0416 83.3947 32.7888 82.9029 32.3791Z" fill="white"/>
<path d="M89.9787 40.2473C89.6283 39.7505 89.3915 39.2273 89.2683 38.6779C89.1562 38.1304 89.1497 37.5868 89.2487 37.047C89.3543 36.5027 89.5596 35.9957 89.8646 35.526C90.1762 35.0517 90.5772 34.6416 91.0675 34.2958C91.5578 33.95 92.0754 33.7122 92.6202 33.5825C93.1716 33.4481 93.7181 33.4249 94.2597 33.5128C94.8014 33.6006 95.3113 33.7892 95.7895 34.0785C96.2722 34.3743 96.6888 34.7707 97.0393 35.2675C97.4312 35.8232 97.6786 36.3683 97.7814 36.9027C97.8842 37.4371 97.8894 37.9719 97.7969 38.507L96.4925 38.2816C96.5719 37.9222 96.5699 37.5516 96.4866 37.1698C96.408 36.7945 96.2326 36.414 95.9606 36.0283C95.7208 35.6884 95.4429 35.4193 95.127 35.2212C94.811 35.0231 94.4682 34.8978 94.0983 34.8454C93.7397 34.7949 93.3708 34.8201 92.9917 34.9211C92.6125 35.0221 92.2432 35.1993 91.8836 35.4529C91.5241 35.7066 91.2331 35.995 91.0108 36.3182C90.7884 36.6415 90.6376 36.9828 90.5583 37.3422C90.4901 37.7036 90.4963 38.0663 90.5769 38.4304C90.6575 38.7945 90.8176 39.1466 91.0574 39.4865C91.3525 39.9049 91.6636 40.2142 91.9907 40.4142C92.329 40.6162 92.6807 40.7401 93.0459 40.786L92.8205 42.0904C92.2788 42.0025 91.7666 41.8106 91.2838 41.5148C90.8011 41.219 90.366 40.7965 89.9787 40.2473Z" fill="white"/>
<path d="M92.6463 44.4303L100.533 41.5385L101.008 42.8341L93.1214 45.7259L92.6463 44.4303ZM94.4847 49.4439L102.371 46.552L102.846 47.8477L94.9598 50.7395L94.4847 49.4439ZM96.4653 44.0397L97.6482 43.6059L99.2635 48.0111L98.0806 48.4449L96.4653 44.0397Z" fill="white"/>
<path d="M99.1467 59.8821C99.1429 59.6341 99.1955 59.4133 99.3045 59.2196C99.4135 59.0259 99.5631 58.8715 99.7534 58.7566C99.9517 58.6495 100.167 58.5942 100.399 58.5906C100.631 58.587 100.844 58.6357 101.037 58.7368C101.231 58.8458 101.385 58.9954 101.5 59.1857C101.623 59.3758 101.687 59.5948 101.69 59.8428C101.694 60.0908 101.638 60.3077 101.52 60.4935C101.411 60.6872 101.262 60.8376 101.071 60.9445C100.881 61.0595 100.67 61.1187 100.438 61.1223C100.206 61.1259 99.9892 61.0732 99.7875 60.9643C99.5939 60.8633 99.4396 60.7177 99.3247 60.5274C99.2098 60.3452 99.1505 60.1301 99.1467 59.8821Z" fill="white"/>
<rect x="2" y="2" width="116" height="116" rx="58" stroke="white" stroke-width="4"/>
</svg>
